<svg width="225" height="225" viewBox="0 0 225 225" fill="none" xmlns="http://www.w3.org/2000/svg">
<mask id="mask0_10_7" style="mask-type:alpha" maskUnits="userSpaceOnUse" x="0" y="0" width="225" height="225">
<rect width="224.669" height="224.669" fill="#D9D9D9"/>
</mask>
<g mask="url(#mask0_10_7)">
<path d="M56.1672 196.585C49.1463 196.585 42.2034 194.869 35.3385 191.437C28.4736 188.004 22.9349 183.48 18.7224 177.863C22.7789 177.863 26.9135 176.264 31.126 173.065C35.3385 169.867 37.4448 165.225 37.4448 159.14C37.4448 151.339 40.1751 144.709 45.6358 139.248C51.0965 133.787 57.7274 131.057 65.5284 131.057C73.3293 131.057 79.9602 133.787 85.4209 139.248C90.8816 144.709 93.6119 151.339 93.6119 159.14C93.6119 169.438 89.9455 178.253 82.6125 185.586C75.2796 192.919 66.4645 196.585 56.1672 196.585ZM56.1672 177.863C61.3158 177.863 65.7234 176.03 69.3898 172.363C73.0563 168.697 74.8895 164.289 74.8895 159.14C74.8895 156.488 73.9924 154.265 72.1982 152.471C70.404 150.676 68.1807 149.779 65.5284 149.779C62.876 149.779 60.6527 150.676 58.8585 152.471C57.0643 154.265 56.1672 156.488 56.1672 159.14C56.1672 162.729 55.7381 166.005 54.88 168.97C54.0219 171.934 52.8907 174.742 51.4866 177.395C52.2667 177.707 53.0468 177.863 53.8269 177.863H56.1672ZM109.994 140.418L84.2507 114.675L168.033 30.8922C169.75 29.1759 171.895 28.2788 174.469 28.2008C177.044 28.1228 179.267 29.0199 181.139 30.8922L193.777 43.5298C195.649 45.402 196.585 47.5863 196.585 50.0826C196.585 52.5789 195.649 54.7632 193.777 56.6354L109.994 140.418Z" fill="#E0EAF5"/>
</g>
</svg>
