<svg width="207" height="207" viewBox="0 0 207 207" fill="none" xmlns="http://www.w3.org/2000/svg">
<mask id="mask0_8_19" style="mask-type:alpha" maskUnits="userSpaceOnUse" x="0" y="0" width="207" height="207">
<rect width="206.331" height="206.331" fill="#D9D9D9"/>
</mask>
<g mask="url(#mask0_8_19)">
<path d="M82.5321 134.115L94.5681 121.865L75.8693 103.166L94.5681 84.467L82.5321 72.216L51.5823 103.166L82.5321 134.115ZM123.798 134.115L154.748 103.166L123.798 72.216L111.762 84.467L130.461 103.166L111.762 121.865L123.798 134.115ZM42.9852 180.54C38.2568 180.54 34.2089 178.856 30.8417 175.489C27.4745 172.122 25.7909 168.074 25.7909 163.346V42.9857C25.7909 38.2573 27.4745 34.2095 30.8417 30.8423C34.2089 27.4751 38.2568 25.7914 42.9852 25.7914H163.345C168.074 25.7914 172.121 27.4751 175.489 30.8423C178.856 34.2095 180.54 38.2573 180.54 42.9857V163.346C180.54 168.074 178.856 172.122 175.489 175.489C172.121 178.856 168.074 180.54 163.345 180.54H42.9852ZM42.9852 163.346H163.345V42.9857H42.9852V163.346Z" fill="#E0EAF5"/>
</g>
</svg>
