<svg width="142" height="142" viewBox="0 0 142 142" fill="none" xmlns="http://www.w3.org/2000/svg">
<mask id="mask0_18_21" style="mask-type:alpha" maskUnits="userSpaceOnUse" x="0" y="0" width="142" height="142">
<rect width="141.5" height="141.5" fill="#D9D9D9"/>
</mask>
<g mask="url(#mask0_18_21)">
<path d="M70.75 129.708C62.5941 129.708 54.9295 128.161 47.7563 125.065C40.583 121.97 34.3432 117.769 29.037 112.463C23.7307 107.157 19.53 100.917 16.4347 93.7438C13.3393 86.5705 11.7917 78.9059 11.7917 70.75C11.7917 62.5941 13.3393 54.9295 16.4347 47.7563C19.53 40.583 23.7307 34.3432 29.037 29.037C34.3432 23.7307 40.583 19.53 47.7563 16.4347C54.9295 13.3393 62.5941 11.7917 70.75 11.7917C78.9059 11.7917 86.5705 13.3393 93.7438 16.4347C100.917 19.53 107.157 23.7307 112.463 29.037C117.769 34.3432 121.97 40.583 125.065 47.7563C128.161 54.9295 129.708 62.5941 129.708 70.75V79.299C129.708 85.0965 127.719 90.0343 123.739 94.1123C119.759 98.1902 114.871 100.229 109.073 100.229C105.634 100.229 102.391 99.4922 99.3448 98.0182C96.2986 96.5443 93.7438 94.4316 91.6802 91.6802C88.8306 94.5299 85.6124 96.6671 82.0258 98.0919C78.4392 99.5168 74.6806 100.229 70.75 100.229C62.5941 100.229 55.6419 97.355 49.8935 91.6065C44.1451 85.8581 41.2709 78.9059 41.2709 70.75C41.2709 62.5941 44.1451 55.6419 49.8935 49.8935C55.6419 44.1451 62.5941 41.2709 70.75 41.2709C78.9059 41.2709 85.8581 44.1451 91.6065 49.8935C97.355 55.6419 100.229 62.5941 100.229 70.75V79.299C100.229 81.8538 101.064 84.0156 102.735 85.7844C104.405 87.5531 106.518 88.4375 109.073 88.4375C111.628 88.4375 113.74 87.5531 115.411 85.7844C117.081 84.0156 117.917 81.8538 117.917 79.299V70.75C117.917 57.5827 113.347 46.4297 104.209 37.2912C95.0703 28.1526 83.9174 23.5834 70.75 23.5834C57.5827 23.5834 46.4297 28.1526 37.2912 37.2912C28.1526 46.4297 23.5834 57.5827 23.5834 70.75C23.5834 83.9174 28.1526 95.0703 37.2912 104.209C46.4297 113.347 57.5827 117.917 70.75 117.917H100.229V129.708H70.75ZM70.75 88.4375C75.6632 88.4375 79.8394 86.7179 83.2787 83.2787C86.7179 79.8394 88.4375 75.6632 88.4375 70.75C88.4375 65.8368 86.7179 61.6606 83.2787 58.2214C79.8394 54.7821 75.6632 53.0625 70.75 53.0625C65.8368 53.0625 61.6606 54.7821 58.2214 58.2214C54.7821 61.6606 53.0625 65.8368 53.0625 70.75C53.0625 75.6632 54.7821 79.8394 58.2214 83.2787C61.6606 86.7179 65.8368 88.4375 70.75 88.4375Z" fill="#E0EAF5"/>
</g>
</svg>
