<svg width="144" height="144" viewBox="0 0 144 144" fill="none" xmlns="http://www.w3.org/2000/svg">
<mask id="mask0_8_25" style="mask-type:alpha" maskUnits="userSpaceOnUse" x="0" y="0" width="144" height="144">
<rect width="143.669" height="143.669" fill="#D9D9D9"/>
</mask>
<g mask="url(#mask0_8_25)">
<path d="M90.0925 131.397L76.6236 117.629C74.9275 121.819 72.3085 125.211 68.7667 127.805C65.2249 130.399 61.259 131.696 56.8691 131.696C50.9827 131.696 46.0192 129.676 41.9785 125.635C37.9378 121.594 35.9175 116.631 35.9175 110.744C35.9175 104.858 37.9378 99.8945 41.9785 95.8538C46.0192 91.8132 50.9827 89.7928 56.8691 89.7928C58.2659 89.7928 59.6627 89.8926 61.0595 90.0921C62.4563 90.2917 63.7533 90.6908 64.9505 91.2894L35.9175 47.8895L71.8346 11.9724L107.752 47.8895L77.8208 92.7859V102.065L98.4731 122.717L90.0925 131.397ZM56.8691 119.724C59.3634 119.724 61.4835 118.851 63.2295 117.105C64.9754 115.359 65.8484 113.239 65.8484 110.744C65.8484 108.25 64.9754 106.13 63.2295 104.384C61.4835 102.638 59.3634 101.765 56.8691 101.765C54.3749 101.765 52.2548 102.638 50.5088 104.384C48.7628 106.13 47.8899 108.25 47.8899 110.744C47.8899 113.239 48.7628 115.359 50.5088 117.105C52.2548 118.851 54.3749 119.724 56.8691 119.724ZM71.8346 80.2149L92.487 49.3861L71.8346 28.7337L51.1823 49.3861L71.8346 80.2149Z" fill="#E0EAF5"/>
</g>
</svg>
