<svg width="99" height="99" viewBox="0 0 99 99" fill="none" xmlns="http://www.w3.org/2000/svg">
<g clip-path="url(#clip0_12_8)">
<path fill-rule="evenodd" clip-rule="evenodd" d="M61.8751 8.25C65.2266 8.24979 68.4988 9.27026 71.2561 11.1756C74.0135 13.0809 76.1252 15.7808 77.3102 18.9159C78.4953 22.051 78.6975 25.4726 77.89 28.7255C77.0825 31.9783 75.3035 34.9081 72.7898 37.125C75.8644 39.8302 77.823 43.5822 78.285 47.6513C78.7469 51.7204 77.6791 55.8159 75.2892 59.1415C72.8993 62.4671 69.3581 64.7851 65.3541 65.6448C61.3501 66.5045 57.1695 65.8445 53.6251 63.7931V74.25C53.6249 77.0071 52.9339 79.7202 51.6151 82.1414C50.2963 84.5627 48.3918 86.6148 46.0756 88.1104C43.7595 89.6061 41.1054 90.4974 38.356 90.7031C35.6066 90.9088 32.8495 90.4223 30.3365 89.2879C27.8236 88.1536 25.635 86.4076 23.9706 84.2096C22.3063 82.0115 21.2192 79.4314 20.8089 76.705C20.3985 73.9787 20.6778 71.1929 21.6214 68.6023C22.5649 66.0117 24.1426 63.6988 26.2103 61.875C24.4527 60.3282 23.0453 58.4243 22.0822 56.2902C21.119 54.1562 20.6223 51.8413 20.6251 49.5C20.6223 47.1587 21.119 44.8438 22.0822 42.7098C23.0453 40.5757 24.4527 38.6718 26.2103 37.125C23.6966 34.9081 21.9176 31.9783 21.1101 28.7255C20.3026 25.4726 20.5048 22.051 21.6899 18.9159C22.8749 15.7808 24.9866 13.0809 27.744 11.1756C30.5013 9.27026 33.7735 8.24979 37.1251 8.25H61.8751ZM45.3751 66H37.1251C35.4934 66 33.8983 66.4839 32.5416 67.3904C31.1849 68.2969 30.1275 69.5854 29.503 71.0929C28.8786 72.6003 28.7152 74.2592 29.0336 75.8595C29.3519 77.4598 30.1376 78.9298 31.2914 80.0836C32.4452 81.2374 33.9152 82.0232 35.5156 82.3415C37.1159 82.6598 38.7747 82.4964 40.2822 81.872C41.7897 81.2476 43.0782 80.1902 43.9847 78.8335C44.8912 77.4768 45.3751 75.8817 45.3751 74.25V66ZM45.3751 41.25H37.1251C34.937 41.25 32.8386 42.1192 31.2914 43.6664C29.7442 45.2135 28.8751 47.312 28.8751 49.5C28.8751 51.688 29.7442 53.7865 31.2914 55.3336C32.8386 56.8808 34.937 57.75 37.1251 57.75H45.3751V41.25ZM61.8751 41.25C59.687 41.25 57.5886 42.1192 56.0414 43.6664C54.4942 45.2135 53.6251 47.312 53.6251 49.5C53.6251 51.688 54.4942 53.7865 56.0414 55.3336C57.5886 56.8808 59.687 57.75 61.8751 57.75C64.0631 57.75 66.1615 56.8808 67.7087 55.3336C69.2559 53.7865 70.1251 51.688 70.1251 49.5C70.1251 47.312 69.2559 45.2135 67.7087 43.6664C66.1615 42.1192 64.0631 41.25 61.8751 41.25ZM61.8751 16.5H53.6251V33H61.8751C64.0159 33.0096 66.0766 32.1866 67.6218 30.7049C69.1671 29.2233 70.0758 27.1989 70.1562 25.0596C70.2365 22.9203 69.4821 20.8335 68.0523 19.2402C66.6225 17.6468 64.6293 16.6716 62.4938 16.5206L61.8751 16.5ZM45.3751 16.5H37.1251C34.937 16.5 32.8386 17.3692 31.2914 18.9164C29.7442 20.4635 28.8751 22.562 28.8751 24.75C28.8751 26.938 29.7442 29.0365 31.2914 30.5836C32.8386 32.1308 34.937 33 37.1251 33H45.3751V16.5Z" fill="#E0EAF5"/>
</g>
<defs>
<clipPath id="clip0_12_8">
<rect width="99" height="99" fill="white"/>
</clipPath>
</defs>
</svg>
