<svg width="134" height="134" viewBox="0 0 134 134" fill="none" xmlns="http://www.w3.org/2000/svg">
<g clip-path="url(#clip0_18_12)">
<path fill-rule="evenodd" clip-rule="evenodd" d="M89.3333 16.75C96.7373 16.75 103.838 19.6912 109.073 24.9266C114.309 30.162 117.25 37.2627 117.25 44.6667V89.3333C117.25 96.7373 114.309 103.838 109.073 109.073C103.838 114.309 96.7373 117.25 89.3333 117.25H44.6667C37.2627 117.25 30.162 114.309 24.9266 109.073C19.6912 103.838 16.75 96.7373 16.75 89.3333V44.6667C16.75 37.2627 19.6912 30.162 24.9266 24.9266C30.162 19.6912 37.2627 16.75 44.6667 16.75H89.3333ZM89.3333 27.9167H44.6667C40.2243 27.9167 35.9639 29.6814 32.8226 32.8226C29.6814 35.9639 27.9167 40.2243 27.9167 44.6667V89.3333C27.9167 93.7757 29.6814 98.0361 32.8226 101.177C35.9639 104.319 40.2243 106.083 44.6667 106.083H89.3333C93.7757 106.083 98.0361 104.319 101.177 101.177C104.319 98.0361 106.083 93.7757 106.083 89.3333V44.6667C106.083 40.2243 104.319 35.9639 101.177 32.8226C98.0361 29.6814 93.7757 27.9167 89.3333 27.9167ZM67 44.6667C72.9232 44.6667 78.6037 47.0196 82.7921 51.2079C86.9804 55.3963 89.3333 61.0768 89.3333 67C89.3333 72.9232 86.9804 78.6037 82.7921 82.7921C78.6037 86.9804 72.9232 89.3333 67 89.3333C61.0768 89.3333 55.3963 86.9804 51.2079 82.7921C47.0196 78.6037 44.6667 72.9232 44.6667 67C44.6667 61.0768 47.0196 55.3963 51.2079 51.2079C55.3963 47.0196 61.0768 44.6667 67 44.6667ZM67 55.8333C64.0384 55.8333 61.1981 57.0098 59.104 59.104C57.0098 61.1981 55.8333 64.0384 55.8333 67C55.8333 69.9616 57.0098 72.8019 59.104 74.896C61.1981 76.9902 64.0384 78.1667 67 78.1667C69.9616 78.1667 72.8019 76.9902 74.896 74.896C76.9902 72.8019 78.1667 69.9616 78.1667 67C78.1667 64.0384 76.9902 61.1981 74.896 59.104C72.8019 57.0098 69.9616 55.8333 67 55.8333ZM92.125 36.2917C93.6058 36.2917 95.0259 36.8799 96.073 37.927C97.1201 38.9741 97.7083 40.3942 97.7083 41.875C97.7083 43.3558 97.1201 44.7759 96.073 45.823C95.0259 46.8701 93.6058 47.4583 92.125 47.4583C90.6442 47.4583 89.2241 46.8701 88.177 45.823C87.1299 44.7759 86.5417 43.3558 86.5417 41.875C86.5417 40.3942 87.1299 38.9741 88.177 37.927C89.2241 36.8799 90.6442 36.2917 92.125 36.2917Z" fill="#E0EAF5"/>
</g>
<defs>
<clipPath id="clip0_18_12">
<rect width="134" height="134" fill="white"/>
</clipPath>
</defs>
</svg>
