<svg width="68" height="68" viewBox="0 0 68 68" fill="none" xmlns="http://www.w3.org/2000/svg">
<g clip-path="url(#clip0_18_26)">
<path fill-rule="evenodd" clip-rule="evenodd" d="M45.3333 42.5C50.0279 42.5 53.8333 46.3054 53.8333 51C53.8333 55.6945 50.0279 59.5 45.3333 59.5C40.6388 59.5 36.8333 55.6945 36.8333 51C36.8333 46.3054 40.6388 42.5 45.3333 42.5ZM19.8333 31.1667C26.0926 31.1667 31.1667 36.2409 31.1667 42.5C31.1667 48.7591 26.0926 53.8333 19.8333 53.8333C13.5741 53.8333 8.5 48.7591 8.5 42.5C8.5 36.2409 13.5741 31.1667 19.8333 31.1667ZM45.3333 48.1667C43.7685 48.1667 42.5 49.4351 42.5 51C42.5 52.5648 43.7685 53.8333 45.3333 53.8333C46.8982 53.8333 48.1667 52.5648 48.1667 51C48.1667 49.4351 46.8982 48.1667 45.3333 48.1667ZM19.8333 36.8333C16.7037 36.8333 14.1667 39.3703 14.1667 42.5C14.1667 45.6297 16.7037 48.1667 19.8333 48.1667C22.9629 48.1667 25.5 45.6297 25.5 42.5C25.5 39.3703 22.9629 36.8333 19.8333 36.8333ZM45.3333 8.5C53.1573 8.5 59.5 14.8426 59.5 22.6667C59.5 30.4906 53.1573 36.8333 45.3333 36.8333C37.5094 36.8333 31.1667 30.4906 31.1667 22.6667C31.1667 14.8426 37.5094 8.5 45.3333 8.5ZM45.3333 14.1667C40.6388 14.1667 36.8333 17.9723 36.8333 22.6667C36.8333 27.3611 40.6388 31.1667 45.3333 31.1667C50.0279 31.1667 53.8333 27.3611 53.8333 22.6667C53.8333 17.9723 50.0279 14.1667 45.3333 14.1667Z" fill="#E0EAF5"/>
</g>
<defs>
<clipPath id="clip0_18_26">
<rect width="68" height="68" fill="white"/>
</clipPath>
</defs>
</svg>
