<svg width="174" height="174" viewBox="0 0 174 174" fill="none" xmlns="http://www.w3.org/2000/svg">
<mask id="mask0_8_7" style="mask-type:alpha" maskUnits="userSpaceOnUse" x="0" y="0" width="174" height="174">
<rect width="174" height="174" fill="#D9D9D9"/>
</mask>
<g mask="url(#mask0_8_7)">
<path d="M87.0001 159.5C78.1792 158.412 69.4188 156.026 60.7188 152.341C52.0188 148.655 44.2553 143.369 37.4282 136.481C30.6011 129.594 25.073 120.894 20.8438 110.381C16.6146 99.8687 14.5001 87.2416 14.5001 72.4999V65.2499H21.7501C27.9126 65.2499 34.2563 66.0354 40.7813 67.6062C47.3063 69.177 53.4084 71.5333 59.0876 74.6749C60.5376 64.2833 63.8303 53.6197 68.9657 42.6843C74.1011 31.7489 80.1126 22.3541 87.0001 14.4999C93.8876 22.3541 99.899 31.7489 105.034 42.6843C110.17 53.6197 113.463 64.2833 114.913 74.6749C120.592 71.5333 126.694 69.177 133.219 67.6062C139.744 66.0354 146.088 65.2499 152.25 65.2499H159.5V72.4999C159.5 87.2416 157.385 99.8687 153.156 110.381C148.927 120.894 143.399 129.594 136.572 136.481C129.745 143.369 122.012 148.655 113.372 152.341C104.732 156.026 95.9417 158.412 87.0001 159.5ZM86.6376 144.637C85.3084 124.579 79.3573 109.415 68.7844 99.1437C58.2115 88.8728 45.0709 82.5291 29.3626 80.1124C30.6917 100.775 36.824 116.181 47.7594 126.331C58.6948 136.481 71.6542 142.583 86.6376 144.637ZM87.0001 98.5999C88.8126 95.9416 91.0178 93.1926 93.6157 90.3531C96.2136 87.5135 98.7209 85.0666 101.138 83.0124C100.896 76.1249 99.5365 68.9353 97.0594 61.4437C94.5823 53.952 91.2292 46.6416 87.0001 39.5124C82.7709 46.6416 79.4178 53.952 76.9407 61.4437C74.4636 68.9353 73.1042 76.1249 72.8626 83.0124C75.2792 85.0666 77.8167 87.5135 80.4751 90.3531C83.1334 93.1926 85.3084 95.9416 87.0001 98.5999ZM101.138 141.375C105.608 139.925 110.26 137.81 115.094 135.031C119.927 132.252 124.428 128.476 128.597 123.703C132.766 118.93 136.33 112.979 139.291 105.85C142.251 98.7208 144.033 90.1416 144.638 80.1124C133.279 81.8041 123.31 85.5801 114.731 91.4406C106.152 97.301 99.5667 104.762 94.9751 113.825C96.4251 117.692 97.6636 121.921 98.6907 126.512C99.7178 131.104 100.533 136.058 101.138 141.375Z" fill="#E0EAF5"/>
</g>
</svg>
