<svg width="170" height="170" viewBox="0 0 170 170" fill="none" xmlns="http://www.w3.org/2000/svg">
<mask id="mask0_8_13" style="mask-type:alpha" maskUnits="userSpaceOnUse" x="0" y="0" width="170" height="170">
<rect width="170" height="170" fill="#D9D9D9"/>
</mask>
<g mask="url(#mask0_8_13)">
<path d="M41.4373 121.125C47.4582 116.521 54.1873 112.891 61.6248 110.235C69.0623 107.578 76.854 106.25 84.9998 106.25C93.1457 106.25 100.937 107.578 108.375 110.235C115.812 112.891 122.542 116.521 128.562 121.125C132.694 116.285 135.911 110.795 138.213 104.657C140.515 98.5176 141.667 91.9655 141.667 85.0003C141.667 69.2989 136.147 55.9291 125.109 44.8909C114.071 33.8527 100.701 28.3336 84.9998 28.3336C69.2984 28.3336 55.9287 33.8527 44.8905 44.8909C33.8523 55.9291 28.3332 69.2989 28.3332 85.0003C28.3332 91.9655 29.4842 98.5176 31.7863 104.657C34.0884 110.795 37.3054 116.285 41.4373 121.125ZM84.9998 92.0836C78.0346 92.0836 72.1613 89.693 67.38 84.9117C62.5988 80.1305 60.2082 74.2572 60.2082 67.2919C60.2082 60.3267 62.5988 54.4534 67.38 49.6721C72.1613 44.8909 78.0346 42.5003 84.9998 42.5003C91.9651 42.5003 97.8384 44.8909 102.62 49.6721C107.401 54.4534 109.792 60.3267 109.792 67.2919C109.792 74.2572 107.401 80.1305 102.62 84.9117C97.8384 89.693 91.9651 92.0836 84.9998 92.0836ZM84.9998 155.834C75.2012 155.834 65.9929 153.974 57.3748 150.255C48.7568 146.537 41.2603 141.49 34.8853 135.115C28.5103 128.74 23.4634 121.243 19.7446 112.625C16.0259 104.007 14.1665 94.7989 14.1665 85.0003C14.1665 75.2017 16.0259 65.9933 19.7446 57.3753C23.4634 48.7572 28.5103 41.2607 34.8853 34.8857C41.2603 28.5107 48.7568 23.4638 57.3748 19.7451C65.9929 16.0263 75.2012 14.1669 84.9998 14.1669C94.7985 14.1669 104.007 16.0263 112.625 19.7451C121.243 23.4638 128.739 28.5107 135.114 34.8857C141.489 41.2607 146.536 48.7572 150.255 57.3753C153.974 65.9933 155.833 75.2017 155.833 85.0003C155.833 94.7989 153.974 104.007 150.255 112.625C146.536 121.243 141.489 128.74 135.114 135.115C128.739 141.49 121.243 146.537 112.625 150.255C104.007 153.974 94.7985 155.834 84.9998 155.834ZM84.9998 141.667C91.2568 141.667 97.1596 140.752 102.708 138.922C108.257 137.092 113.333 134.466 117.937 131.042C113.333 127.618 108.257 124.992 102.708 123.162C97.1596 121.332 91.2568 120.417 84.9998 120.417C78.7429 120.417 72.8401 121.332 67.2915 123.162C61.7429 124.992 56.6665 127.618 52.0623 131.042C56.6665 134.466 61.7429 137.092 67.2915 138.922C72.8401 140.752 78.7429 141.667 84.9998 141.667ZM84.9998 77.9169C88.0693 77.9169 90.6075 76.9135 92.6144 74.9065C94.6214 72.8996 95.6248 70.3614 95.6248 67.2919C95.6248 64.2225 94.6214 61.6843 92.6144 59.6774C90.6075 57.6704 88.0693 56.6669 84.9998 56.6669C81.9304 56.6669 79.3922 57.6704 77.3853 59.6774C75.3783 61.6843 74.3748 64.2225 74.3748 67.2919C74.3748 70.3614 75.3783 72.8996 77.3853 74.9065C79.3922 76.9135 81.9304 77.9169 84.9998 77.9169Z" fill="#E0EAF5"/>
</g>
</svg>
