<svg width="121" height="120" viewBox="0 0 121 120" fill="none" xmlns="http://www.w3.org/2000/svg">
<g clip-path="url(#clip0_18_22)">
<path d="M60.5 10C88.3451 10 110.917 32.385 110.917 60C110.917 87.615 88.3451 110 60.5 110C51.9188 110.012 43.4777 107.843 35.9823 103.7L34.4446 102.81L19.1583 107.27C18.3264 107.513 17.4457 107.541 16.5997 107.352C15.7537 107.163 14.9704 106.763 14.324 106.19C13.6777 105.616 13.1897 104.889 12.9063 104.076C12.623 103.263 12.5537 102.392 12.705 101.545L12.836 101L17.3332 85.84C12.5787 78.0465 10.0711 69.1089 10.0833 60C10.0833 32.385 32.6548 10 60.5 10ZM60.5 20C53.2784 19.9987 46.189 21.9203 39.972 25.5641C33.7549 29.2079 28.6384 34.4402 25.1567 40.7147C21.6749 46.9892 19.9557 54.0757 20.1785 61.2341C20.4013 68.3926 22.558 75.3604 26.4233 81.41C27.4216 82.97 27.8501 84.89 27.5123 86.795L27.3157 87.61L25.0923 95.115L32.6599 92.91C34.8429 92.27 37.1117 92.66 38.9115 93.795C44.1969 97.1139 50.1882 99.1681 56.4119 99.7952C62.6356 100.422 68.9211 99.6049 74.7714 97.4079C80.6218 95.2109 85.8767 91.6944 90.1206 87.1364C94.3646 82.5784 97.4813 77.1039 99.2244 71.1455C100.967 65.1872 101.289 58.9084 100.164 52.8055C99.0388 46.7027 96.4977 40.943 92.7414 35.9819C88.9851 31.0208 84.1167 26.9942 78.521 24.2204C72.9253 21.4467 66.7557 20.0018 60.5 20ZM45.8892 35.92C46.4474 35.6803 47.0589 35.5888 47.6635 35.6545C48.2682 35.7203 48.8452 35.941 49.3377 36.295C51.8787 38.135 53.8954 40.605 55.6297 43.015L57.2783 45.385L58.0497 46.51C58.4948 47.1554 58.7132 47.9282 58.6713 48.7089C58.6294 49.4897 58.3294 50.2351 57.8178 50.83L57.4397 51.21L52.7812 54.64C52.557 54.801 52.3992 55.0371 52.3371 55.3047C52.275 55.5722 52.3127 55.853 52.4434 56.095C53.5021 57.995 55.3726 60.83 57.5203 62.96C59.6731 65.09 62.6628 67.07 64.7098 68.235C65.1534 68.485 65.6878 68.405 66.0508 68.08L66.2424 67.855L69.2725 63.28C69.8287 62.5451 70.6502 62.0523 71.5648 61.9051C72.4793 61.7578 73.4159 61.9674 74.178 62.49L76.9156 64.385C79.6381 66.31 82.2548 68.38 84.3269 71.005C84.7122 71.4974 84.9571 72.0833 85.0361 72.7016C85.115 73.32 85.025 73.9479 84.7756 74.52C82.7791 79.14 77.7223 83.075 72.4689 82.885L71.6673 82.835L70.7043 82.745C70.5225 82.7236 70.341 82.7003 70.1598 82.675L68.9599 82.475C64.3014 81.605 56.8347 78.985 49.0957 71.315C41.3618 63.64 38.72 56.235 37.8427 51.615L37.641 50.425L37.515 49.385L37.4495 48.51C37.4415 48.3851 37.4348 48.2601 37.4293 48.135C37.2377 42.915 41.2257 37.9 45.8892 35.92Z" fill="#E0EAF5"/>
</g>
<defs>
<clipPath id="clip0_18_22">
<rect width="121" height="120" fill="white"/>
</clipPath>
</defs>
</svg>
